<?xml version="1.0" encoding="UTF-8"?>
<svg version="1.1" viewBox="0 0 2000 2000" width="500" height="500" xmlns="http://www.w3.org/2000/svg">
<path transform="translate(1122,764)" d="m0 0h56l1 1 1 162 8-15 8-10 12-12 14-9 10-5 14-4 5-1h31l18 4 11 5 12 7 13 12 9 14 5 13h1v-51h56l1 2v14l4-2 10-8 10-6 13-4h25l16 4 11 5 10 6 8 7 8 12 4 12 1 21v100l-1 1-54 1-2-1-1-99-4-11-8-9-9-4h-15l-12 6-7 7-6 12-1 22v75l-1 1-55 1-1-1v-74l-115 1h-2l3 13 5 8 7 6 9 4 11 2 18-2 12-6 8-7 2-3 6 2 28 14 7 5-4 8-11 12-12 9-15 7-19 5-9 1h-28l-14-3-15-6-11-7-11-9-9-10-8-13-4-8-1 51h-56l-1-17-10 9-9 6-13 5-11 2h-24l-14-3-16-8-8-6-7-6-8-10-8-14-5-14-3-17v-17l3-16 4-12 8-15 11-13 11-10 16-8 9-3 17-2 18 1 15 4 14 7 9 7zm139 143-10 3-8 6-6 10-2 7 1 1h63l-3-10-6-9-7-5-9-3zm-184 12-11 4-9 7-6 8-3 7-1 5v16l4 11 4 6 7 7 11 5 4 1h16l11-4 8-6 6-7 4-9 1-4v-18l-5-12-8-9-10-6-6-2z" fill="#FEFEFE"/>
<path transform="translate(606,870)" d="m0 0 17 1 15 4 12 6 10 8 8 11 4 11 2 10 6-12 8-11 12-12 13-8 12-5 10-2 15-1 14 1 15 4 12 6 9 7 2 2 1-15h56l1 1v162l-1 1h-55v-17l-11 9-11 7-15 5-7 1h-24l-14-3-16-8-12-9-9-10-11-18v43h-57l-1-100-4-11-5-6-8-4-4-1h-14l-10 5-6 9-2 7-1 101h-57l-1-100-4-11-4-5-9-5-4-1h-14l-10 5-4 5-3 6-1 6-1 100h-57v-163l1-1h54l2 2-1 15 6-4 12-9 12-6 8-2h24l15 4 14 7 8 7 7 10 7-6 8-8 14-9 11-4zm152 49-11 4-9 7-6 8-4 11-1 11 4 16 8 11 10 6 9 3h16l11-4 8-6 6-7 4-9 1-4v-17l-4-11-7-9-8-6-11-4z" fill="#FEFEFE"/>
<path transform="translate(974,870)" d="m0 0 14 1 14 4 9 5-1 6-21 42-4-1-12-5-12-2-11 1-9 4-8 7-5 10-2 8-1 89h-57v-163l1-1h55l1 1v17l-1 5 8-7 5-5 9-7 12-6z" fill="#FEFEFE"/>
<path transform="translate(1567,971)" d="m0 0 12 1 10 4 10 9 5 8 3 10v10l-4 12-7 9-9 7-9 3h-16l-9-3-6-4-5-4-6-9-3-10v-11l2-8 4-8 3-4h2v-2l10-7 6-2z" fill="#FEFEFE"/>
<path transform="translate(872,1167)" d="m0 0h8l4 3 4-1 3-2h8l4 4 1 2 1 21-5 1-1-3-1-18-2-2-8 1-1 4-1 18h-5l-1-2v-17l-4-4-7 1-1 1-1 21h-5l-1-3v-23z" fill="#FEFEFE"/>
<path transform="translate(746,1156)" d="m0 0h5v38l-4 1-7 1h-8l-6-4-3-6v-9l4-7 4-3h10l3 1 1-11zm-12 15-5 4-1 2v8l5 6h8l4-4v-11l-4-4z" fill="#FEFEFE"/>
<path transform="translate(1147,1167)" d="m0 0h19l1 1v26l-4 1-7 1h-9l-5-4-3-6v-9l4-7zm4 4-6 4-1 2v8l5 6h8l4-4v-11l-3-4z" fill="#FEFEFE"/>
<path transform="translate(1324,1167)" d="m0 0h18l1 1v26l-11 2h-9l-5-4-3-6v-9l4-7zm3 4-6 4-1 2v8l5 6h8l4-4 1-7-3-7-4-2z" fill="#FEFEFE"/>
<path transform="translate(958,1166)" d="m0 0 9 2 5 6 2 7-2 2-20 1 3 5 1 1h9l7-2-1 4-6 4h-10l-6-4-3-5v-11l7-8zm-1 5-5 5 1 4 12-1 2-2-3-5z" fill="#FEFEFE"/>
<path transform="translate(794,1168)" d="m0 0h5l1 2v18l1 2 7 1 3-2 1-5v-15l5-1 1 1v18l-3 6-5 3h-9l-6-4-2-7v-16z" fill="#FEFEFE"/>
<path transform="translate(1026,1167)" d="m0 0h9l4 4 1 2 1 19-1 3h-4l-1-2-1-18-3-3-8 1-1 3-1 19h-5v-27z" fill="#FEFEFE"/>
<path transform="translate(667,1167)" d="m0 0h8l5 3 2 12v12l-5 1-1-2v-13l-2-7-7-1-3 1-1 3-1 19h-5l-1-26 4-1z" fill="#FEFEFE"/>
<path transform="translate(1088,1160)" d="m0 0 3 1 1 6 7 2v2l-8 1 1 15 2 4 4 2v2h-10l-2-5v-18l-5-1 1-3 3-1z" fill="#FEFEFE"/>
<path transform="translate(1221,1167)" d="m0 0h6v4l-10 2-1 1-1 21h-5l-1-6v-20l2-1z" fill="#FEFEFE"/>
<path transform="translate(607,1158)" d="m0 0 5 1v35l-5 1-1-1v-35z" fill="#FEFEFE"/>
<path transform="translate(1269,1168)" d="m0 0h5v27h-5z" fill="#FEFEFE"/>
<path transform="translate(1270,1157)" d="m0 0 4 1v5h-5l-1-4z" fill="#FEFEFE"/>
</svg>
